<svg width="223" height="380" viewBox="0 0 223 380" fill="none" xmlns="http://www.w3.org/2000/svg">
<path d="M110.843 246.001L24.753 197.322L1.22331 184.017L30.7238 166.825L56.7079 151.683L111.461 119.775L221.909 181.862L110.843 246.001Z" fill="#00EFED" stroke="black" stroke-width="1.5" stroke-linejoin="round"/>
<path d="M117 145.989L163.887 149.582C171.791 152.695 172.268 157.175 165.318 163.022C158.369 168.868 148.988 171.861 137.176 172C120.744 171.333 107.69 171 98.0123 171C88.335 171 94.6643 162.663 117 145.989Z" fill="#202E89" fill-opacity="0.2"/>
<path d="M93.5 171.412C106.479 171.412 117 164.584 117 157.394C117 154.721 115.242 122.59 111.727 61H76.2727C72.0909 120.47 70 152.601 70 157.394C70 164.584 80.5213 171.412 93.5 171.412Z" fill="white" stroke="black" stroke-width="1.5" stroke-linecap="round" stroke-linejoin="round"/>
<mask id="mask0" mask-type="alpha" maskUnits="userSpaceOnUse" x="70" y="61" width="47" height="111">
<path fill-rule="evenodd" clip-rule="evenodd" d="M93.5 171.412C106.479 171.412 117 164.584 117 157.394C117 154.721 115.242 122.59 111.727 61H76.2727C72.0909 120.47 70 152.601 70 157.394C70 164.584 80.5213 171.412 93.5 171.412Z" fill="white"/>
</mask>
<g mask="url(#mask0)">
<path d="M93.5 154.412C106.479 154.412 117 147.584 117 140.394C117 137.721 115.242 105.59 111.727 44H76.2727C72.0909 103.47 70 135.601 70 140.394C70 147.584 80.5213 154.412 93.5 154.412Z" fill="#FF5500" stroke="black" stroke-width="1.5" stroke-linecap="round" stroke-linejoin="round"/>
</g>
<mask id="mask1" mask-type="alpha" maskUnits="userSpaceOnUse" x="70" y="61" width="47" height="111">
<path fill-rule="evenodd" clip-rule="evenodd" d="M93.5 171.412C106.479 171.412 117 164.584 117 157.394C117 154.721 115.242 122.59 111.727 61H76.2727C72.0909 120.47 70 152.601 70 157.394C70 164.584 80.5213 171.412 93.5 171.412Z" fill="white"/>
</mask>
<g mask="url(#mask1)">
<path d="M93.5 137.412C106.479 137.412 117 130.584 117 123.394C117 120.721 115.242 88.5897 111.727 27H76.2727C72.0909 86.4696 70 118.601 70 123.394C70 130.584 80.5213 137.412 93.5 137.412Z" fill="white" stroke="black" stroke-width="1.5" stroke-linecap="round" stroke-linejoin="round"/>
</g>
<mask id="mask2" mask-type="alpha" maskUnits="userSpaceOnUse" x="70" y="61" width="47" height="111">
<path fill-rule="evenodd" clip-rule="evenodd" d="M93.5 171.412C106.479 171.412 117 164.584 117 157.394C117 154.721 115.242 122.59 111.727 61H76.2727C72.0909 120.47 70 152.601 70 157.394C70 164.584 80.5213 171.412 93.5 171.412Z" fill="white"/>
</mask>
<g mask="url(#mask2)">
<path d="M93.5 120.412C106.479 120.412 117 113.584 117 106.394C117 103.721 115.242 71.5897 111.727 10H76.2727C72.0909 69.4696 70 101.601 70 106.394C70 113.584 80.5213 120.412 93.5 120.412Z" fill="#FF5500" stroke="black" stroke-width="1.5" stroke-linecap="round" stroke-linejoin="round"/>
</g>
<mask id="mask3" mask-type="alpha" maskUnits="userSpaceOnUse" x="70" y="61" width="47" height="111">
<path fill-rule="evenodd" clip-rule="evenodd" d="M93.5 171.412C106.479 171.412 117 164.584 117 157.394C117 154.721 115.242 122.59 111.727 61H76.2727C72.0909 120.47 70 152.601 70 157.394C70 164.584 80.5213 171.412 93.5 171.412Z" fill="white"/>
</mask>
<g mask="url(#mask3)">
<path d="M93.5 102.412C106.479 102.412 117 96.5837 117 89.3941C117 86.7211 115.242 54.5897 111.727 -7H76.2727C72.0909 52.4696 70 84.6009 70 89.3941C70 96.5837 80.5213 102.412 93.5 102.412Z" fill="white" stroke="black" stroke-width="1.5" stroke-linecap="round" stroke-linejoin="round"/>
</g>
<mask id="mask4" mask-type="alpha" maskUnits="userSpaceOnUse" x="70" y="61" width="47" height="111">
<path fill-rule="evenodd" clip-rule="evenodd" d="M93.5 171.412C106.479 171.412 117 164.584 117 157.394C117 154.721 115.242 122.59 111.727 61H76.2727C72.0909 120.47 70 152.601 70 157.394C70 164.584 80.5213 171.412 93.5 171.412Z" fill="white"/>
</mask>
<g mask="url(#mask4)">
<path d="M93.5 86.4121C106.479 86.4121 117 79.5837 117 72.3941C117 69.7211 115.242 37.5897 111.727 -24H76.2727C72.0909 35.4696 70 67.6009 70 72.3941C70 79.5837 80.5213 86.4121 93.5 86.4121Z" fill="#FF5500" stroke="black" stroke-width="1.5" stroke-linecap="round" stroke-linejoin="round"/>
</g>
<path fill-rule="evenodd" clip-rule="evenodd" d="M93.5 171.412C106.479 171.412 117 164.584 117 157.394C117 154.721 115.242 122.59 111.727 61H76.2727C72.0909 120.47 70 152.601 70 157.394C70 164.584 80.5213 171.412 93.5 171.412Z" stroke="black" stroke-width="1.5" stroke-linecap="round" stroke-linejoin="round"/>
<path d="M94 69.8948C103.389 69.8948 111 65.7235 111 60.5779C111 57.1475 105.333 50.9198 94 41.8948C82.6667 50.9198 77 57.1475 77 60.5779C77 65.7235 84.6112 69.8948 94 69.8948Z" fill="white" stroke="black" stroke-width="1.5" stroke-linecap="round" stroke-linejoin="round"/>
<rect x="131.891" y="12.707" width="15" height="43" transform="rotate(45 131.891 12.707)" stroke="black" stroke-width="1.5" stroke-linecap="round" stroke-linejoin="round"/>
<path d="M131.891 12.7071L93.851 50.747" stroke="black" stroke-width="1.5" stroke-linecap="round" stroke-linejoin="round"/>
<rect x="131.791" y="88.8909" width="15" height="43" transform="rotate(135 131.791 88.8909)" stroke="black" stroke-width="1.5" stroke-linecap="round" stroke-linejoin="round"/>
<path d="M131.79 88.8909L93.7506 50.851" stroke="black" stroke-width="1.5" stroke-linecap="round" stroke-linejoin="round"/>
<rect x="55.6067" y="88.7905" width="15" height="43" transform="rotate(-135 55.6067 88.7905)" stroke="black" stroke-width="1.5" stroke-linecap="round" stroke-linejoin="round"/>
<path d="M55.6067 88.7905L93.6465 50.7506" stroke="black" stroke-width="1.5" stroke-linecap="round" stroke-linejoin="round"/>
<rect x="55.707" y="12.6067" width="15" height="43" transform="rotate(-45 55.707 12.6067)" stroke="black" stroke-width="1.5" stroke-linecap="round" stroke-linejoin="round"/>
<path d="M55.7071 12.6067L93.747 50.6465" stroke="black" stroke-width="1.5" stroke-linecap="round" stroke-linejoin="round"/>
<path d="M111.5 245.373L1.22334 184.056L17.7125 249L74.154 303.871L111.5 379.135V245.373Z" fill="#A0ADFF" stroke="black" stroke-width="1.5" stroke-linejoin="round"/>
<path d="M111.5 245.373L221.909 181.862L182.948 280.499L111.5 379.135V245.373Z" fill="#5C6CD3" stroke="black" stroke-width="1.5" stroke-linejoin="round"/>
<path d="M179.975 193.151L159.878 198.767C157.834 195.959 159.241 192.973 163.98 191.274C165.731 190.646 167.753 190.26 169.888 190.101L152.153 188.503C154.753 186.137 160.443 184.829 166.898 185.41C171.115 185.79 173.068 185.595 175.777 187.103C174.844 185.269 177.136 184.686 179.258 183.143C182.505 180.781 188.552 180.821 194.581 181.603L185.894 187.103C187.498 186.643 189.371 186.339 191.453 186.234C197.697 185.917 204.059 187.478 207.796 189.976C199.634 190.389 193.513 190.699 189.432 190.906C188.74 190.941 190.976 191.78 192.496 192.487C196.095 194.161 197.182 196.534 195.573 198.399L179.975 193.151Z" fill="#202E89" fill-opacity="0.2"/>
<path d="M170.294 189.94V133.2H174.365V189.94C174.365 190.471 173.454 190.901 172.329 190.901C171.205 190.901 170.294 190.471 170.294 189.94Z" fill="black"/>
<path d="M138.926 122.181C143.877 116.712 151.791 114.41 159.207 116.964C166.623 119.517 171.443 126.204 171.977 133.561L138.926 122.181L138.926 122.181Z" fill="#00EFED" stroke="black" stroke-width="1.5" stroke-linejoin="round"/>
<path d="M171.246 129.552C171.63 130.85 171.878 132.194 171.977 133.561C161.254 129.869 153.212 127.1 147.851 125.254C167.461 125.264 170.977 128.643 171.246 129.552Z" fill="#202E89" fill-opacity="0.2"/>
<path d="M197.94 109.637L172.375 133.477C169.871 126.538 171.554 118.469 177.29 113.12C183.027 107.771 191.193 106.655 197.94 109.637L197.94 109.637Z" fill="#00EFED" stroke="black" stroke-width="1.5" stroke-linejoin="round"/>
<path d="M172.375 133.476C175.139 121.204 196.213 108.874 197.94 109.637L172.375 133.476Z" fill="#202E89" fill-opacity="0.2"/>
<path d="M140.575 149.153C140.208 141.785 144.177 134.562 151.227 131.123C158.277 127.685 166.412 129.005 171.992 133.83L140.575 149.153Z" fill="#00EFED" stroke="black" stroke-width="1.5" stroke-linejoin="round"/>
<path d="M141.469 142.382C148.766 136.82 167.389 132.862 171.992 133.83L140.575 149.153C140.46 146.845 140.839 144.851 141.469 142.382Z" fill="#202E89" fill-opacity="0.2"/>
<path d="M206.863 135.063L171.929 133.843C175.064 127.166 181.96 122.651 189.799 122.925C197.637 123.198 204.201 128.183 206.863 135.063Z" fill="#00EFED" stroke="black" stroke-width="1.5" stroke-linejoin="round"/>
<path d="M171.929 133.843C184.148 126.056 202.929 128.83 203.359 129.316C204.847 130.996 206.041 132.939 206.863 135.063L171.929 133.843Z" fill="#202E89" fill-opacity="0.2"/>
<path d="M185.625 154.034L172.074 133.168C177.452 131.877 183.229 133.936 186.345 138.734C189.46 143.532 188.991 149.646 185.625 154.034Z" fill="#00EFED" stroke="black" stroke-width="1.5" stroke-linejoin="round"/>
<path d="M185.625 154.034L175.849 138.981C184.214 141.81 188.409 144.014 188.434 145.594C188.482 148.592 187.506 151.583 185.625 154.034Z" fill="#202E89" fill-opacity="0.2"/>
<path d="M52.9532 207.138C52.3095 205.386 52.3282 203.643 53.0093 201.908C50.6133 202.58 47.0193 203.589 42.2272 204.934C39.8815 201.696 41.4971 198.254 46.9352 196.295C48.9449 195.571 51.2665 195.126 53.7162 194.943L33.3618 193.1C36.3458 190.373 42.8765 188.864 50.2843 189.535C55.1244 189.973 57.3665 189.748 60.4752 191.487C60.4752 186.066 75.137 184.244 82.0566 185.146L72.0863 191.487C73.9274 190.956 76.0767 190.606 78.4666 190.484C85.6334 190.119 92.9343 191.919 97.2235 194.798C82.8603 195.745 73.3369 196.338 68.6533 196.576C68.124 196.603 62.8906 200.124 52.9532 207.138Z" fill="#202E89" fill-opacity="0.2"/>
<path d="M53.7234 194.923V129.394H58.351V194.923C58.351 195.535 57.3151 196.032 56.0372 196.032C54.7593 196.032 53.7234 195.535 53.7234 194.923Z" fill="black"/>
<path d="M18.4755 115.425C24.2997 109.191 33.4854 106.69 42.0021 109.805C50.5189 112.921 55.9559 120.772 56.4306 129.31L18.4755 115.425L18.4755 115.425Z" fill="#00EFED" stroke="black" stroke-width="1.5" stroke-linejoin="round"/>
<path d="M55.6642 124.648C56.083 126.161 56.3425 127.724 56.4307 129.31C44.117 124.805 34.8817 121.427 28.7249 119.175C51.3758 119.599 55.3713 123.589 55.6642 124.648Z" fill="#202E89" fill-opacity="0.2"/>
<path d="M86.8822 102.128L56.8924 129.221C54.1338 121.126 56.2341 111.81 62.9635 105.731C69.6929 99.6515 79.1467 98.5296 86.8822 102.128L86.8822 102.128Z" fill="#00EFED" stroke="black" stroke-width="1.5" stroke-linejoin="round"/>
<path d="M56.8924 129.221C60.3225 115.055 84.9027 101.207 86.8823 102.128L56.8924 129.221Z" fill="#202E89" fill-opacity="0.2"/>
<path d="M19.8581 146.721C19.5774 138.174 24.3011 129.885 32.5105 126.048C40.7199 122.211 50.0913 123.912 56.4435 129.622L19.8581 146.721Z" fill="#00EFED" stroke="black" stroke-width="1.5" stroke-linejoin="round"/>
<path d="M21.0218 138.891C29.5582 132.599 51.1453 128.403 56.4437 129.622L19.8582 146.721C19.7703 144.043 20.2463 141.741 21.0218 138.891Z" fill="#202E89" fill-opacity="0.2"/>
<path d="M96.6968 131.785L56.3699 129.636C60.1208 121.963 68.1726 116.875 77.2215 117.357C86.2704 117.839 93.7551 123.755 96.6968 131.785Z" fill="#00EFED" stroke="black" stroke-width="1.5" stroke-linejoin="round"/>
<path d="M56.3699 129.636C70.6346 120.868 92.2733 124.478 92.7608 125.05C94.4474 127.028 95.7886 129.306 96.6967 131.785L56.3699 129.636Z" fill="#202E89" fill-opacity="0.2"/>
<path d="M36.2017 150.048L56.8634 130.027C51.1435 127.163 44.1067 127.978 39.356 132.581C34.6053 137.184 33.5489 144.212 36.2017 150.048Z" fill="#00EFED" stroke="black" stroke-width="1.5" stroke-linejoin="round"/>
<path d="M36.2018 150.048L56.8635 130.027C54.1376 128.906 35.9869 136.929 35.3032 139.482C34.3772 142.939 34.6758 146.691 36.2018 150.048Z" fill="#202E89" fill-opacity="0.2"/>
<path d="M144.138 211.787C148.615 213.562 153.109 217.739 155.412 219.247C158.851 221.497 172.612 230.743 171.614 232.378C171.115 233.196 169.351 233.482 168.045 232.136C166.759 230.812 158.488 230.837 154.649 224.025C153.679 221.584 138.488 222.783 136.021 216.97C134.856 214.226 141.426 210.712 144.138 211.787Z" fill="#D8D8D8" stroke="black" stroke-width="1.5" stroke-linecap="round" stroke-linejoin="round"/>
<path d="M162.231 224.099C164.535 225.607 167.498 227.938 170.524 230.077C171.922 231.065 176.005 227.692 177.075 228.374C178.321 229.168 173.23 234.347 172.524 234.347C171.54 234.347 167.028 232.836 160.405 229.054C159.434 226.613 159.928 222.592 162.231 224.099Z" fill="white" stroke="black" stroke-width="1.5" stroke-linecap="round" stroke-linejoin="round"/>
<path d="M173.924 234.633C174.402 234.909 175.014 234.745 175.29 234.267C175.566 233.789 175.402 233.177 174.924 232.901C174.446 232.625 173.834 232.789 173.558 233.267C173.282 233.745 173.446 234.357 173.924 234.633Z" fill="black" stroke="black" stroke-width="1.5" stroke-linecap="round" stroke-linejoin="round"/>
<path d="M176.878 231.762C177.356 232.038 177.967 231.874 178.244 231.396C178.52 230.918 178.356 230.306 177.878 230.03C177.399 229.754 176.788 229.918 176.511 230.396C176.235 230.874 176.399 231.486 176.878 231.762Z" fill="black" stroke="black" stroke-width="1.5" stroke-linecap="round" stroke-linejoin="round"/>
<path d="M144.395 210.18C148.32 210.468 145.803 211.236 148.541 213.641C149.606 214.577 153.515 214.577 160.266 213.641L142.602 224.099L137.38 223.671C138.262 222.362 137.35 221.156 134.643 220.053C130.584 218.397 138.576 209.753 144.395 210.18Z" fill="#202E89" fill-opacity="0.2"/>
<path d="M142.497 214.388C145.925 217.772 148.429 223.372 149.961 225.66C152.246 229.075 161.301 242.962 159.743 244.078C158.965 244.636 157.229 244.21 156.552 242.461C156.113 241.324 152.637 239.538 150.077 236.217C148.761 234.51 147.041 231.545 145.972 229.197C145.532 226.595 135.313 221.795 133 215.988C131.921 213.278 140.421 212.339 142.497 214.388Z" fill="#D8D8D8" stroke="black" stroke-width="1.5" stroke-linecap="round" stroke-linejoin="round"/>
<path d="M154.579 233C155.722 234.707 157.295 238.531 159.245 241.683C160.146 243.139 166.282 239.046 167 240.092C167.837 241.31 161.664 247.809 161.245 248.109C160.466 248.667 155.343 242.707 150.724 236.638C150.785 234.012 153.048 230.712 154.579 233Z" fill="white" stroke="black" stroke-width="1.5" stroke-linecap="round" stroke-linejoin="round"/>
<path d="M157.881 244.683L159.923 241.883" stroke="black" stroke-width="1.5" stroke-linecap="round" stroke-linejoin="round"/>
<path d="M168.958 233.145L171 230.344" stroke="black" stroke-width="1.5" stroke-linecap="round" stroke-linejoin="round"/>
<path fill-rule="evenodd" clip-rule="evenodd" d="M162.067 247.212C162.399 247.653 163.026 247.741 163.467 247.409C163.908 247.076 163.996 246.449 163.664 246.008C163.331 245.567 162.704 245.479 162.263 245.811C161.822 246.144 161.734 246.771 162.067 247.212Z" stroke="black" stroke-width="1.5" stroke-linecap="round" stroke-linejoin="round"/>
<path d="M165.215 243.885C165.547 244.326 166.174 244.414 166.615 244.082C167.057 243.749 167.145 243.122 166.812 242.681C166.48 242.24 165.853 242.152 165.412 242.484C164.971 242.817 164.883 243.444 165.215 243.885Z" fill="black" stroke="black" stroke-width="1.5" stroke-linecap="round" stroke-linejoin="round"/>
<path d="M137.018 223.917C137.46 223.917 138.072 223.686 138.855 223.223C139.066 223.099 136.783 220.659 137.018 220.501C137.331 220.291 140.578 221.951 141.515 221.182C142.965 219.991 143.177 220.479 145.465 218.28C145.528 218.22 144.539 216.923 142.497 214.388L145.815 217.997C147.632 215.439 148.541 213.987 148.541 213.641C146.828 212.793 145.048 211.683 142.497 210.17C139.947 208.656 130.55 209.877 130.55 211.534C130.55 212.086 130.584 214.747 130.866 216.789C131.306 219.974 134.544 221.269 137.018 223.917Z" fill="#00EFED" stroke="black" stroke-width="1.5" stroke-linecap="round" stroke-linejoin="round"/>
<path d="M140 190.901C140.407 191.94 142.951 197.447 146.176 200.285C147.532 201.478 152.339 199.28 153.985 196.846C156.14 193.66 157.589 194.865 157.589 196.032C157.589 197.855 154.19 200.811 147.391 204.898C145 204.898 140.963 202.331 140 200.285C138.362 196.804 138.653 195.401 138.036 193.407C137.922 193.04 137.297 190.561 137.193 190.188L138.346 190.145" fill="#D8D8D8"/>
<path d="M140 190.901C140.407 191.94 142.951 197.447 146.176 200.285C147.532 201.478 152.339 199.28 153.985 196.846C156.14 193.66 157.589 194.865 157.589 196.032C157.589 197.855 154.19 200.811 147.391 204.898C145 204.898 140.963 202.331 140 200.285C138.362 196.804 138.653 195.401 138.036 193.407C137.922 193.04 137.297 190.561 137.193 190.188L138.346 190.145" stroke="black" stroke-width="1.5" stroke-linecap="round" stroke-linejoin="round"/>
<path d="M128.408 194.304C129.507 192.157 131.038 190.77 133 190.144C134.962 189.519 137.06 189.452 139.293 189.945C140.313 190.986 140.881 191.77 140.997 192.297C141.475 194.454 141.108 206.785 142.131 208.852C143.786 212.195 132.771 213.978 130.732 212.378C128.833 205.501 128.058 199.476 128.408 194.304Z" fill="white" stroke="black" stroke-width="1.5" stroke-linecap="round" stroke-linejoin="round"/>
<path d="M137.997 188.588C140.483 188.588 142.497 187.751 142.497 181.794C142.497 175.837 139.88 177.925 137.395 177.925C134.91 177.925 133.497 178.042 133.497 181.794C133.497 186.045 133.042 188.756 132.132 189.928C131.797 190.359 133.005 192.343 134.732 192.67C137.997 193.288 139.079 191.794 139.005 191.593C138.533 190.323 138.629 189.321 139.293 188.588" fill="#D8D8D8"/>
<path d="M137.997 188.588C140.483 188.588 142.497 187.751 142.497 181.794C142.497 175.837 139.88 177.925 137.395 177.925C134.91 177.925 133.497 178.042 133.497 181.794C133.497 186.045 133.042 188.756 132.132 189.928C131.797 190.359 133.005 192.343 134.732 192.67C137.997 193.288 139.079 191.794 139.005 191.593C138.533 190.323 138.629 189.321 139.293 188.588" stroke="black" stroke-width="1.5" stroke-linecap="round" stroke-linejoin="round"/>
<path d="M131.158 198.767C130.689 199.839 129.167 202.552 127.462 205.45C131.003 207.229 135.783 209.141 137.422 210.723C137.763 211.052 142.335 212.962 140 215.72C138.444 217.558 137.197 217.167 136.261 214.546C137.964 212.613 123.456 211.157 123.456 206.529C123.456 202.877 127.035 195.539 128.407 194.304C130.044 192.831 133.111 194.299 131.158 198.767Z" fill="#D8D8D8" stroke="black" stroke-width="1.5" stroke-linecap="round" stroke-linejoin="round"/>
<path d="M130.044 187.953L133 185.398L134.97 187.953L136.154 183.214C136.552 184.505 136.917 185.059 137.25 184.874C138.05 184.432 137.841 182.006 138.558 181.124C139.344 180.158 141.038 180.748 141.437 180.672C141.684 180.626 142.579 181.235 144.123 182.5C143.039 178.192 140.997 176.038 137.997 176.038C136.813 176.038 134.354 174.942 130.62 172.749L131.91 176.8L127.665 176.038L130.044 179.512L124.23 183.958L130.392 184.874L130.044 187.953Z" fill="#5C6CD3" stroke="black" stroke-width="1.5" stroke-linecap="round" stroke-linejoin="round"/>
<path d="M134 186C135.105 186 136 184.881 136 183.5C136 182.119 135.105 181 134 181C132.895 181 132 182.119 132 183.5C132 184.881 132.895 186 134 186Z" fill="black" stroke="black" stroke-width="1.5" stroke-linecap="round" stroke-linejoin="round"/>
<path d="M134 181.124C134.66 179.447 135.326 178.263 136 177.571C136.674 176.878 137.589 176.404 138.747 176.147" stroke="black" stroke-width="1.5" stroke-linecap="round" stroke-linejoin="round"/>
</svg>
